<?xml version="1.0" encoding="utf-8"?>
<!-- Generator: Adobe Illustrator 15.0.0, SVG Export Plug-In . SVG Version: 6.00 Build 0)  -->
<!DOCTYPE svg PUBLIC "-//W3C//DTD SVG 1.1//EN" "http://www.w3.org/Graphics/SVG/1.1/DTD/svg11.dtd">
<svg version="1.1" id="图层_1" xmlns="http://www.w3.org/2000/svg" xmlns:xlink="http://www.w3.org/1999/xlink" x="0px" y="0px"
	 width="57.82px" height="67.262px" viewBox="0 0 57.82 67.262" enable-background="new 0 0 57.82 67.262" xml:space="preserve">
<g>
	<polygon fill="#FFF100" points="7.17,4.467 11.41,4.541 8.142,7.259 9.383,11.339 5.804,9.051 2.332,11.5 3.388,7.368 0,4.801 
		4.232,4.535 5.611,0.5 	"/>
	<polygon fill="#FFF100" points="19.175,4.467 23.415,4.541 20.146,7.259 21.388,11.339 17.809,9.051 14.336,11.5 15.393,7.368 
		12.005,4.801 16.237,4.535 17.616,0.5 	"/>
	<polygon fill="#FFF100" points="30.76,4.467 35,4.541 31.731,7.259 32.973,11.339 29.394,9.051 25.921,11.5 26.978,7.368 
		23.59,4.801 27.822,4.535 29.201,0.5 	"/>
	<polygon fill="#FFF100" points="42.17,4.467 46.41,4.541 43.143,7.259 44.383,11.339 40.805,9.051 37.332,11.5 38.389,7.368 
		35,4.801 39.232,4.535 40.611,0.5 	"/>
	<polygon fill="#FFF100" points="53.58,4.467 57.82,4.541 54.553,7.259 55.793,11.339 52.215,9.051 48.742,11.5 49.799,7.368 
		46.41,4.801 50.643,4.535 52.021,0.5 	"/>
</g>
<g>
	<polygon fill="#FFF100" points="7.17,15.468 11.41,15.541 8.142,18.259 9.383,22.339 5.804,20.051 2.332,22.5 3.388,18.368 
		0,15.801 4.232,15.535 5.611,11.5 	"/>
	<polygon fill="#FFF100" points="19.175,15.468 23.415,15.541 20.146,18.259 21.388,22.339 17.809,20.051 14.336,22.5 
		15.393,18.368 12.005,15.801 16.237,15.535 17.616,11.5 	"/>
	<polygon fill="#FFF100" points="30.76,15.468 35,15.541 31.731,18.259 32.973,22.339 29.394,20.051 25.921,22.5 26.978,18.368 
		23.59,15.801 27.822,15.535 29.201,11.5 	"/>
	<polygon fill="#FFF100" points="42.17,15.468 46.41,15.541 43.141,18.259 44.383,22.339 40.803,20.051 37.332,22.5 38.387,18.368 
		35,15.801 39.232,15.535 40.611,11.5 	"/>
	<linearGradient id="SVGID_1_" gradientUnits="userSpaceOnUse" x1="46.4102" y1="17" x2="57.8203" y2="17">
		<stop  offset="0" style="stop-color:#FFF100"/>
		<stop  offset="0.5" style="stop-color:#FFF100"/>
		<stop  offset="0.5" style="stop-color:#C9CACA"/>
		<stop  offset="1" style="stop-color:#C9CACA"/>
	</linearGradient>
	<polygon fill="url(#SVGID_1_)" points="53.58,15.468 57.82,15.541 54.551,18.259 55.793,22.339 52.213,20.051 48.742,22.5 
		49.797,18.368 46.41,15.801 50.643,15.535 52.021,11.5 	"/>
</g>
<g>
	<polygon fill="#FFF100" points="7.17,26.468 11.41,26.541 8.142,29.259 9.383,33.34 5.804,31.051 2.332,33.5 3.388,29.368 
		0,26.801 4.232,26.535 5.611,22.5 	"/>
	<polygon fill="#FFF100" points="19.175,26.468 23.415,26.541 20.146,29.259 21.388,33.34 17.809,31.051 14.336,33.5 15.393,29.368 
		12.005,26.801 16.237,26.535 17.616,22.5 	"/>
	<polygon fill="#FFF100" points="30.76,26.468 35,26.541 31.731,29.259 32.973,33.34 29.394,31.051 25.921,33.5 26.978,29.368 
		23.59,26.801 27.822,26.535 29.201,22.5 	"/>
	<polygon fill="#FFF100" points="42.17,26.468 46.41,26.541 43.143,29.259 44.383,33.34 40.805,31.051 37.332,33.5 38.389,29.368 
		35,26.801 39.232,26.535 40.611,22.5 	"/>
	<polygon fill="#C9CACA" points="53.58,26.468 57.82,26.541 54.553,29.259 55.793,33.34 52.215,31.051 48.742,33.5 49.799,29.368 
		46.41,26.801 50.643,26.535 52.021,22.5 	"/>
</g>
<g>
	<polygon fill="#FFF100" points="7.363,37.467 11.603,37.541 8.334,40.26 9.576,44.341 5.996,42.051 2.524,44.5 3.58,40.368 
		0.192,37.801 4.425,37.535 5.803,33.5 	"/>
	<polygon fill="#FFF100" points="19.368,37.467 23.607,37.541 20.339,40.26 21.581,44.341 18.001,42.051 14.529,44.5 15.585,40.368 
		12.197,37.801 16.43,37.535 17.808,33.5 	"/>
	<polygon fill="#FFF100" points="30.953,37.467 35.192,37.541 31.924,40.26 33.166,44.341 29.586,42.051 26.114,44.5 27.17,40.368 
		23.782,37.801 28.015,37.535 29.393,33.5 	"/>
	<polygon fill="#C9CACA" points="54.157,37.467 58.397,37.541 55.129,40.26 56.37,44.341 52.791,42.051 49.319,44.5 50.375,40.368 
		46.987,37.801 51.22,37.535 52.599,33.5 	"/>
	<linearGradient id="SVGID_2_" gradientUnits="userSpaceOnUse" x1="35.5771" y1="39" x2="46.9873" y2="39">
		<stop  offset="0" style="stop-color:#FFF100"/>
		<stop  offset="0.5" style="stop-color:#FFF100"/>
		<stop  offset="0.5" style="stop-color:#C9CACA"/>
		<stop  offset="1" style="stop-color:#C9CACA"/>
	</linearGradient>
	<polygon fill="url(#SVGID_2_)" points="42.747,37.467 46.987,37.541 43.719,40.26 44.96,44.341 41.381,42.051 37.909,44.5 
		38.965,40.368 35.577,37.801 39.81,37.535 41.188,33.5 	"/>
</g>
<g>
	<polygon fill="#FFF100" points="7.17,48.468 11.41,48.541 8.142,51.259 9.383,55.339 5.804,53.051 2.332,55.5 3.388,51.369 
		0,48.802 4.232,48.535 5.611,44.5 	"/>
	<polygon fill="#FFF100" points="19.175,48.468 23.415,48.541 20.146,51.259 21.388,55.339 17.809,53.051 14.336,55.5 
		15.393,51.369 12.005,48.802 16.237,48.535 17.616,44.5 	"/>
	<polygon fill="#FFF100" points="30.76,48.468 35,48.541 31.731,51.259 32.973,55.339 29.394,53.051 25.921,55.5 26.978,51.369 
		23.59,48.802 27.822,48.535 29.201,44.5 	"/>
	<polygon fill="#C9CACA" points="42.17,48.468 46.41,48.541 43.141,51.259 44.383,55.339 40.803,53.051 37.332,55.5 38.387,51.369 
		35,48.802 39.232,48.535 40.611,44.5 	"/>
	<polygon fill="#C9CACA" points="53.58,48.468 57.82,48.541 54.551,51.259 55.793,55.339 52.213,53.051 48.742,55.5 49.797,51.369 
		46.41,48.802 50.643,48.535 52.021,44.5 	"/>
</g>
<g>
	<polygon fill="#FFF100" points="7.17,59.468 11.41,59.541 8.142,62.259 9.383,66.339 5.804,64.051 2.332,66.5 3.388,62.369 
		0,59.802 4.232,59.535 5.611,55.5 	"/>
	<polygon fill="#FFF100" points="19.175,59.468 23.415,59.541 20.146,62.259 21.388,66.339 17.809,64.051 14.336,66.5 
		15.393,62.369 12.005,59.802 16.237,59.535 17.616,55.5 	"/>
	<polygon fill="#C9CACA" points="42.171,59.468 46.41,59.541 43.142,62.259 44.384,66.339 40.804,64.051 37.331,66.5 38.388,62.369 
		35,59.802 39.232,59.535 40.61,55.5 	"/>
	<polygon fill="#C9CACA" points="53.58,59.468 57.82,59.541 54.552,62.259 55.793,66.339 52.214,64.051 48.742,66.5 49.798,62.369 
		46.41,59.802 50.643,59.535 52.021,55.5 	"/>
	<linearGradient id="SVGID_3_" gradientUnits="userSpaceOnUse" x1="23.5898" y1="61" x2="35" y2="61">
		<stop  offset="0" style="stop-color:#FFF100"/>
		<stop  offset="0.5" style="stop-color:#FFF100"/>
		<stop  offset="0.5" style="stop-color:#C9CACA"/>
		<stop  offset="1" style="stop-color:#C9CACA"/>
	</linearGradient>
	<polygon fill="url(#SVGID_3_)" points="30.76,59.468 35,59.541 31.731,62.259 32.973,66.339 29.394,64.051 25.922,66.5 
		26.978,62.369 23.59,59.802 27.822,59.535 29.201,55.5 	"/>
</g>
</svg>
